# Blender v3.0.0 OBJ File: ''
# www.blender.org
mtllib cube2.mtl
o Cube_080_Cube_026
v -64.510498 -169.140015 -26.976057
v -64.510498 -169.140045 81.196945
v -64.510498 -63.810032 81.196976
v -64.510498 -63.809998 -26.976021
v 43.018497 -169.140015 -26.976057
v 43.018497 -63.809998 -26.976021
v 43.018497 -169.140045 81.196945
v 43.018497 -63.810032 81.196976
vt 0.000000 0.000000
vt 0.000000 0.000000
vt 0.000000 0.000000
vt 0.000000 0.000000
vt 0.000000 0.000000
vt 0.000000 0.000000
vt 0.000000 0.000000
vt 0.000000 0.000000
vn -1.0000 0.0000 0.0000
vn 0.0000 0.0000 -1.0000
vn 1.0000 -0.0000 0.0000
vn 0.0000 -0.0000 1.0000
vn 0.0000 -1.0000 -0.0000
vn 0.0000 1.0000 0.0000
usemtl Au
s 1
f 1/1/1 2/2/1 3/3/1
f 3/3/1 4/4/1 1/1/1
f 5/5/2 1/1/2 4/4/2
f 4/4/2 6/6/2 5/5/2
f 7/7/3 5/5/3 6/6/3
f 6/6/3 8/8/3 7/7/3
f 2/2/4 7/7/4 8/8/4
f 8/8/4 3/3/4 2/2/4
f 2/2/5 1/1/5 5/5/5
f 5/5/5 7/7/5 2/2/5
f 8/8/6 6/6/6 4/4/6
f 4/4/6 3/3/6 8/8/6
